<svg width="243" height="165" viewBox="0 0 243 165" fill="none" xmlns="http://www.w3.org/2000/svg">
<rect width="243" height="165" fill="black"/>
<mask id="path-2-inside-1_3_42" fill="white">
<path fill-rule="evenodd" clip-rule="evenodd" d="M120.027 107.379C127.991 107.379 135.092 103.683 139.708 97.9127C144.318 103.822 151.506 107.622 159.581 107.622C163.186 107.622 166.614 106.865 169.715 105.501V94.084C167.136 96.1389 163.869 97.367 160.315 97.367C151.976 97.367 145.217 90.6074 145.217 82.2691C145.217 73.9307 151.976 67.1711 160.315 67.1711C163.869 67.1711 167.136 68.3992 169.715 70.4541V59.3642C166.614 58.0001 163.186 57.2428 159.581 57.2428C151.617 57.2428 144.516 60.939 139.9 66.7095C135.29 60.8 128.102 57 120.027 57C116.422 57 112.994 57.7573 109.893 59.1214V70.2112C112.472 68.1563 115.74 66.9283 119.294 66.9283C127.632 66.9283 134.392 73.6879 134.392 82.0262C134.392 90.3646 127.632 97.1241 119.294 97.1241C115.74 97.1241 112.472 95.8961 109.893 93.8412V105.258C112.994 106.622 116.422 107.379 120.027 107.379ZM74 100.46V62.031C74 60.6285 75.2999 59.1137 77.1085 58.6649C78.2388 58.3844 80.2169 58.4779 81.3473 59.2259C82.7037 60.1235 93.5927 73.2512 98.8677 79.7028V68.4826C99.4329 65.9581 100.281 64.5555 101.694 63.153C102.973 61.883 107.063 59.5064 109.041 59.5064C109.041 59.5064 109.323 102.424 109.323 104.668C103.954 104.668 84.1732 78.0198 84.1732 78.0198V100.46C84.1732 102.143 82.4776 103.546 79.3692 103.546C76.2607 103.546 74 102.143 74 100.46ZM148.065 78.8927V86.2992H168.006C168.006 86.2992 170 85.4446 170 82.5959C170 79.7473 168.006 78.8927 168.006 78.8927H148.065Z"/>
</mask>
<path fill-rule="evenodd" clip-rule="evenodd" d="M120.027 107.379C127.991 107.379 135.092 103.683 139.708 97.9127C144.318 103.822 151.506 107.622 159.581 107.622C163.186 107.622 166.614 106.865 169.715 105.501V94.084C167.136 96.1389 163.869 97.367 160.315 97.367C151.976 97.367 145.217 90.6074 145.217 82.2691C145.217 73.9307 151.976 67.1711 160.315 67.1711C163.869 67.1711 167.136 68.3992 169.715 70.4541V59.3642C166.614 58.0001 163.186 57.2428 159.581 57.2428C151.617 57.2428 144.516 60.939 139.9 66.7095C135.29 60.8 128.102 57 120.027 57C116.422 57 112.994 57.7573 109.893 59.1214V70.2112C112.472 68.1563 115.74 66.9283 119.294 66.9283C127.632 66.9283 134.392 73.6879 134.392 82.0262C134.392 90.3646 127.632 97.1241 119.294 97.1241C115.74 97.1241 112.472 95.8961 109.893 93.8412V105.258C112.994 106.622 116.422 107.379 120.027 107.379ZM74 100.46V62.031C74 60.6285 75.2999 59.1137 77.1085 58.6649C78.2388 58.3844 80.2169 58.4779 81.3473 59.2259C82.7037 60.1235 93.5927 73.2512 98.8677 79.7028V68.4826C99.4329 65.9581 100.281 64.5555 101.694 63.153C102.973 61.883 107.063 59.5064 109.041 59.5064C109.041 59.5064 109.323 102.424 109.323 104.668C103.954 104.668 84.1732 78.0198 84.1732 78.0198V100.46C84.1732 102.143 82.4776 103.546 79.3692 103.546C76.2607 103.546 74 102.143 74 100.46ZM148.065 78.8927V86.2992H168.006C168.006 86.2992 170 85.4446 170 82.5959C170 79.7473 168.006 78.8927 168.006 78.8927H148.065Z" fill="url(#paint0_linear_3_42)"/>
<path d="M139.708 97.9127L141.285 96.6825L139.728 94.6863L138.146 96.6634L139.708 97.9127ZM169.715 105.501L170.521 107.331L171.715 106.806V105.501H169.715ZM169.715 94.084H171.715V89.9335L168.469 92.5198L169.715 94.084ZM169.715 70.4541L168.469 72.0183L171.715 74.6047V70.4541H169.715ZM169.715 59.3642H171.715V58.0591L170.521 57.5335L169.715 59.3642ZM139.9 66.7095L138.323 67.9396L139.88 69.9359L141.462 67.9588L139.9 66.7095ZM109.893 59.1214L109.088 57.2907L107.893 57.8163V59.1214H109.893ZM109.893 70.2112H107.893V74.3618L111.139 71.7755L109.893 70.2112ZM109.893 93.8412L111.139 92.2769L107.893 89.6907V93.8412H109.893ZM109.893 105.258H107.893V106.563L109.088 107.089L109.893 105.258ZM77.1085 58.6649L76.6268 56.7238L76.6268 56.7238L77.1085 58.6649ZM81.3473 59.2259L80.2436 60.8938L80.2436 60.8938L81.3473 59.2259ZM98.8677 79.7028L97.3194 80.9688L100.868 85.3086V79.7028H98.8677ZM98.8677 68.4826L96.916 68.0457L96.8677 68.2615V68.4826H98.8677ZM101.694 63.153L100.285 61.7336L100.285 61.7336L101.694 63.153ZM109.041 59.5064L111.041 59.4933L111.028 57.5064H109.041V59.5064ZM109.323 104.668L109.323 106.668L111.323 106.668V104.668H109.323ZM84.1732 78.0198L85.7791 76.8277L82.1732 71.97V78.0198H84.1732ZM148.065 86.2992H146.065V88.2992H148.065V86.2992ZM148.065 78.8927V76.8927H146.065V78.8927H148.065ZM168.006 86.2992V88.2992H168.416L168.794 88.1375L168.006 86.2992ZM168.006 78.8927L168.794 77.0544L168.416 76.8927H168.006V78.8927ZM138.146 96.6634C133.894 101.98 127.358 105.379 120.027 105.379V109.379C128.625 109.379 136.291 105.387 141.27 99.162L138.146 96.6634ZM159.581 105.622C152.148 105.622 145.532 102.127 141.285 96.6825L138.131 99.1428C143.104 105.517 150.864 109.622 159.581 109.622V105.622ZM168.91 103.67C166.058 104.925 162.904 105.622 159.581 105.622V109.622C163.469 109.622 167.171 108.805 170.521 107.331L168.91 103.67ZM167.715 94.084V105.501H171.715V94.084H167.715ZM160.315 99.367C164.337 99.367 168.041 97.9751 170.961 95.6483L168.469 92.5198C166.231 94.3027 163.4 95.367 160.315 95.367V99.367ZM143.217 82.2691C143.217 91.712 150.872 99.367 160.315 99.367V95.367C153.081 95.367 147.217 89.5028 147.217 82.2691H143.217ZM160.315 65.1711C150.872 65.1711 143.217 72.8261 143.217 82.2691H147.217C147.217 75.0353 153.081 69.1711 160.315 69.1711V65.1711ZM170.961 68.8899C168.041 66.563 164.337 65.1711 160.315 65.1711V69.1711C163.4 69.1711 166.231 70.2354 168.469 72.0183L170.961 68.8899ZM167.715 59.3642V70.4541H171.715V59.3642H167.715ZM159.581 59.2428C162.904 59.2428 166.058 59.9403 168.91 61.1949L170.521 57.5335C167.171 56.0599 163.469 55.2428 159.581 55.2428V59.2428ZM141.462 67.9588C145.715 62.6424 152.25 59.2428 159.581 59.2428V55.2428C150.984 55.2428 143.317 59.2356 138.338 65.4602L141.462 67.9588ZM120.027 59C127.46 59 134.076 62.4951 138.323 67.9396L141.477 65.4794C136.505 59.105 128.745 55 120.027 55V59ZM110.699 60.9521C113.55 59.6975 116.705 59 120.027 59V55C116.139 55 112.438 55.8171 109.088 57.2907L110.699 60.9521ZM111.893 70.2112V59.1214H107.893V70.2112H111.893ZM119.294 64.9283C115.271 64.9283 111.568 66.3201 108.647 68.647L111.139 71.7755C113.377 69.9925 116.209 68.9283 119.294 68.9283V64.9283ZM136.392 82.0262C136.392 72.5833 128.737 64.9283 119.294 64.9283V68.9283C126.528 68.9283 132.392 74.7924 132.392 82.0262H136.392ZM119.294 99.1241C128.737 99.1241 136.392 91.4691 136.392 82.0262H132.392C132.392 89.26 126.528 95.1241 119.294 95.1241V99.1241ZM108.647 95.4054C111.568 97.7323 115.271 99.1241 119.294 99.1241V95.1241C116.209 95.1241 113.377 94.0599 111.139 92.2769L108.647 95.4054ZM111.893 105.258V93.8412H107.893V105.258H111.893ZM120.027 105.379C116.705 105.379 113.55 104.682 110.699 103.427L109.088 107.089C112.438 108.562 116.139 109.379 120.027 109.379V105.379ZM72 62.031V100.46H76V62.031H72ZM76.6268 56.7238C74.1692 57.3336 72 59.4808 72 62.031H76C76 61.938 76.0568 61.6668 76.3602 61.3308C76.6505 61.0095 77.0812 60.7323 77.5902 60.606L76.6268 56.7238ZM82.451 57.558C81.5135 56.9377 80.3807 56.67 79.4373 56.5707C78.4761 56.4695 77.4597 56.5171 76.6268 56.7238L77.5902 60.606C77.8875 60.5322 78.4254 60.4863 79.0185 60.5487C79.6293 60.613 80.0507 60.7661 80.2436 60.8938L82.451 57.558ZM100.416 78.4369C97.7744 75.2059 93.7259 70.3021 90.1654 66.0904C88.3862 63.9859 86.721 62.0449 85.411 60.5691C84.7573 59.8327 84.1811 59.1998 83.718 58.716C83.3223 58.3025 82.844 57.8181 82.451 57.558L80.2436 60.8938C80.1897 60.8581 80.3484 60.9804 80.8284 61.4818C81.241 61.9129 81.7793 62.5033 82.4196 63.2246C83.6976 64.6644 85.3387 66.5768 87.1107 68.6728C90.6525 72.8623 94.6861 77.7481 97.3194 80.9688L100.416 78.4369ZM96.8677 68.4826V79.7028H100.868V68.4826H96.8677ZM100.285 61.7336C98.5906 63.4151 97.5615 65.1626 96.916 68.0457L100.819 68.9195C101.304 66.7535 101.971 65.696 103.103 64.5724L100.285 61.7336ZM109.041 57.5064C108.207 57.5064 107.326 57.7433 106.567 58.0134C105.773 58.2962 104.947 58.6762 104.173 59.0838C102.674 59.8736 101.13 60.8942 100.285 61.7336L103.103 64.5724C103.536 64.1417 104.677 63.3391 106.037 62.623C106.693 62.2778 107.34 61.9843 107.909 61.7818C108.513 61.5666 108.886 61.5064 109.041 61.5064V57.5064ZM111.323 104.668C111.323 103.537 111.253 92.2357 111.182 81.2328C111.147 75.7277 111.111 70.2929 111.085 66.2343C111.072 64.205 111.061 62.5197 111.053 61.3418C111.049 60.7528 111.046 60.2907 111.044 59.9758C111.043 59.8184 111.042 59.6977 111.042 59.6164C111.041 59.5758 111.041 59.545 111.041 59.5244C111.041 59.5141 111.041 59.5063 111.041 59.5011C111.041 59.4985 111.041 59.4965 111.041 59.4952C111.041 59.4946 111.041 59.4941 111.041 59.4937C111.041 59.4934 111.041 59.4933 109.041 59.5064C107.041 59.5196 107.041 59.5198 107.041 59.5201C107.041 59.5204 107.041 59.5209 107.041 59.5215C107.041 59.5229 107.041 59.5248 107.041 59.5274C107.041 59.5326 107.041 59.5404 107.041 59.5507C107.041 59.5713 107.041 59.6021 107.042 59.6428C107.042 59.724 107.043 59.8447 107.044 60.0021C107.046 60.317 107.049 60.7791 107.053 61.368C107.061 62.5459 107.072 64.2311 107.085 66.2604C107.112 70.3189 107.147 75.7536 107.182 81.2584C107.253 92.2752 107.323 103.554 107.323 104.668H111.323ZM84.1732 78.0198C82.5672 79.2119 82.5674 79.2121 82.5676 79.2124C82.5678 79.2126 82.5681 79.213 82.5685 79.2135C82.5692 79.2144 82.5702 79.2158 82.5715 79.2176C82.5741 79.2211 82.5779 79.2262 82.5828 79.2328C82.5928 79.2462 82.6074 79.2659 82.6266 79.2917C82.6651 79.3432 82.7219 79.4193 82.7959 79.5181C82.9439 79.7157 83.161 80.0046 83.4388 80.3717C83.9943 81.1058 84.7929 82.1532 85.7677 83.4096C87.716 85.9206 90.3743 89.2743 93.2058 92.6329C96.0295 95.9824 99.0592 99.377 101.746 101.949C103.085 103.231 104.385 104.353 105.564 105.168C106.155 105.576 106.754 105.935 107.345 106.197C107.918 106.451 108.6 106.668 109.323 106.668L109.323 102.668C109.375 102.668 109.274 102.676 108.967 102.54C108.678 102.412 108.302 102.198 107.838 101.877C106.908 101.235 105.782 100.275 104.512 99.0594C101.979 96.6347 99.0566 93.3672 96.264 90.0547C93.479 86.7513 90.8565 83.443 88.928 80.9575C87.9644 79.7157 87.1757 78.6812 86.6285 77.958C86.3549 77.5964 86.1417 77.3128 85.9974 77.1201C85.9252 77.0237 85.8702 76.9501 85.8335 76.9008C85.8151 76.8762 85.8013 76.8576 85.7922 76.8454C85.7876 76.8392 85.7842 76.8347 85.7821 76.8317C85.781 76.8303 85.7802 76.8292 85.7797 76.8285C85.7794 76.8282 85.7793 76.828 85.7791 76.8278C85.7791 76.8277 85.7791 76.8277 84.1732 78.0198ZM86.1732 100.46V78.0198H82.1732V100.46H86.1732ZM79.3692 105.546C81.1997 105.546 82.834 105.136 84.0733 104.28C85.3499 103.398 86.1732 102.047 86.1732 100.46H82.1732C82.1732 100.557 82.1487 100.748 81.8004 100.988C81.4148 101.255 80.647 101.546 79.3692 101.546V105.546ZM72 100.46C72 102.281 73.2162 103.6 74.5049 104.358C75.8279 105.136 77.5379 105.546 79.3692 105.546V101.546C78.092 101.546 77.1174 101.254 76.5329 100.91C75.9141 100.546 76 100.323 76 100.46H72ZM150.065 86.2992V78.8927H146.065V86.2992H150.065ZM168.006 84.2992H148.065V88.2992H168.006V84.2992ZM168 82.5959C168 83.5036 167.699 83.9687 167.498 84.1988C167.384 84.3291 167.275 84.4125 167.208 84.4571C167.175 84.4789 167.155 84.4896 167.154 84.4902C167.154 84.4905 167.158 84.4881 167.168 84.4832C167.174 84.4807 167.18 84.4776 167.188 84.4739C167.193 84.4721 167.197 84.4701 167.202 84.4679C167.205 84.4668 167.207 84.4657 167.21 84.4645C167.211 84.4639 167.212 84.4634 167.214 84.4628C167.215 84.4625 167.216 84.462 167.216 84.4618C167.217 84.4614 167.218 84.4609 168.006 86.2992C168.794 88.1375 168.795 88.137 168.796 88.1366C168.796 88.1364 168.797 88.1359 168.798 88.1356C168.8 88.1349 168.801 88.1343 168.803 88.1336C168.806 88.1322 168.809 88.1308 168.813 88.1293C168.82 88.1263 168.827 88.123 168.835 88.1194C168.851 88.1123 168.868 88.1041 168.888 88.0946C168.928 88.0758 168.975 88.0523 169.029 88.0236C169.137 87.9664 169.273 87.8881 169.427 87.7853C169.734 87.5806 170.124 87.2723 170.508 86.8328C171.304 85.9235 172 84.5369 172 82.5959H168ZM168.006 78.8927C167.218 80.731 167.217 80.7305 167.216 80.7301C167.216 80.7299 167.215 80.7294 167.214 80.7291C167.212 80.7285 167.211 80.728 167.21 80.7274C167.207 80.7262 167.205 80.7251 167.202 80.724C167.197 80.7218 167.193 80.7198 167.188 80.718C167.18 80.7142 167.174 80.7112 167.168 80.7087C167.158 80.7038 167.154 80.7014 167.154 80.7017C167.155 80.7023 167.175 80.713 167.208 80.7348C167.275 80.7794 167.384 80.8628 167.498 80.9931C167.699 81.2232 168 81.6883 168 82.5959H172C172 80.655 171.304 79.2684 170.508 78.3591C170.124 77.9196 169.734 77.6113 169.427 77.4066C169.273 77.3038 169.137 77.2255 169.029 77.1683C168.975 77.1396 168.928 77.1161 168.888 77.0973C168.868 77.0878 168.851 77.0796 168.835 77.0725C168.827 77.0689 168.82 77.0656 168.813 77.0626C168.809 77.0611 168.806 77.0597 168.803 77.0583C168.801 77.0576 168.8 77.057 168.798 77.0563C168.797 77.056 168.796 77.0555 168.796 77.0553C168.795 77.0549 168.794 77.0544 168.006 78.8927ZM148.065 80.8927H168.006V76.8927H148.065V80.8927Z" fill="#282828" fill-opacity="0.7" mask="url(#path-2-inside-1_3_42)"/>
<defs>
<linearGradient id="paint0_linear_3_42" x1="74" y1="82.0682" x2="169.715" y2="82.0683" gradientUnits="userSpaceOnUse">
<stop stop-color="#C5293D"/>
<stop offset="1" stop-color="#FEB41C"/>
</linearGradient>
</defs>
</svg>
