<svg width="200" height="200" viewBox="0 0 200 200" fill="none" xmlns="http://www.w3.org/2000/svg">
<rect width="200" height="200" rx="27" fill="black"/>
<mask id="path-2-inside-1_3_39" fill="white">
<path fill-rule="evenodd" clip-rule="evenodd" d="M96.7869 144.426C110.766 144.426 123.23 137.939 131.332 127.81C139.423 138.183 152.039 144.852 166.213 144.852C172.541 144.852 178.557 143.523 184 141.129V121.09C179.473 124.697 173.738 126.852 167.5 126.852C152.864 126.852 141 114.988 141 100.352C141 85.7169 152.864 73.8524 167.5 73.8524C173.738 73.8524 179.473 76.0079 184 79.6147V60.1497C178.557 57.7554 172.541 56.4262 166.213 56.4262C152.234 56.4262 139.77 62.9137 131.668 73.0422C123.577 62.6699 110.961 56 96.7869 56C90.4595 56 84.4425 57.3292 79 59.7235V79.1885C83.5271 75.5817 89.2618 73.4262 95.5 73.4262C110.136 73.4262 122 85.2907 122 99.9262C122 114.562 110.136 126.426 95.5 126.426C89.2618 126.426 83.5271 124.271 79 120.664V140.703C84.4425 143.097 90.4595 144.426 96.7869 144.426ZM16 132.282V64.8304C16 62.3687 18.2816 59.71 21.456 58.9222C23.44 58.4299 26.912 58.594 28.896 59.907C31.2768 61.4825 50.3893 84.5242 59.648 95.8482V76.1544C60.64 71.7232 62.128 69.2615 64.608 66.7998C66.8537 64.5706 74.032 60.3993 77.504 60.3993C77.504 60.3993 78 135.728 78 139.667C68.576 139.667 33.856 92.8941 33.856 92.8941V132.282C33.856 135.236 30.88 137.698 25.424 137.698C19.968 137.698 16 135.236 16 132.282ZM146 94.4262V107.426H181C181 107.426 184.5 105.926 184.5 100.926C184.5 95.9262 181 94.4262 181 94.4262H146Z"/>
</mask>
<path fill-rule="evenodd" clip-rule="evenodd" d="M96.7869 144.426C110.766 144.426 123.23 137.939 131.332 127.81C139.423 138.183 152.039 144.852 166.213 144.852C172.541 144.852 178.557 143.523 184 141.129V121.09C179.473 124.697 173.738 126.852 167.5 126.852C152.864 126.852 141 114.988 141 100.352C141 85.7169 152.864 73.8524 167.5 73.8524C173.738 73.8524 179.473 76.0079 184 79.6147V60.1497C178.557 57.7554 172.541 56.4262 166.213 56.4262C152.234 56.4262 139.77 62.9137 131.668 73.0422C123.577 62.6699 110.961 56 96.7869 56C90.4595 56 84.4425 57.3292 79 59.7235V79.1885C83.5271 75.5817 89.2618 73.4262 95.5 73.4262C110.136 73.4262 122 85.2907 122 99.9262C122 114.562 110.136 126.426 95.5 126.426C89.2618 126.426 83.5271 124.271 79 120.664V140.703C84.4425 143.097 90.4595 144.426 96.7869 144.426ZM16 132.282V64.8304C16 62.3687 18.2816 59.71 21.456 58.9222C23.44 58.4299 26.912 58.594 28.896 59.907C31.2768 61.4825 50.3893 84.5242 59.648 95.8482V76.1544C60.64 71.7232 62.128 69.2615 64.608 66.7998C66.8537 64.5706 74.032 60.3993 77.504 60.3993C77.504 60.3993 78 135.728 78 139.667C68.576 139.667 33.856 92.8941 33.856 92.8941V132.282C33.856 135.236 30.88 137.698 25.424 137.698C19.968 137.698 16 135.236 16 132.282ZM146 94.4262V107.426H181C181 107.426 184.5 105.926 184.5 100.926C184.5 95.9262 181 94.4262 181 94.4262H146Z" fill="url(#paint0_linear_3_39)"/>
<path d="M131.332 127.81L133.697 125.965L131.361 122.971L128.989 125.936L131.332 127.81ZM184 141.129L185.208 143.875L187 143.087V141.129H184ZM184 121.09H187V114.864L182.131 118.744L184 121.09ZM184 79.6147L182.131 81.9611L187 85.8405V79.6147H184ZM184 60.1497H187V58.192L185.208 57.4037L184 60.1497ZM131.668 73.0422L129.303 74.8874L131.639 77.8818L134.011 74.9162L131.668 73.0422ZM79 59.7235L77.7919 56.9775L76 57.7658V59.7235H79ZM79 79.1885H76V85.4143L80.8694 81.5349L79 79.1885ZM79 120.664L80.8694 118.318L76 114.438V120.664H79ZM79 140.703H76V142.66L77.7919 143.449L79 140.703ZM21.456 58.9222L20.7334 56.0106L20.7334 56.0106L21.456 58.9222ZM28.896 59.907L30.5516 57.4051L30.5516 57.4051L28.896 59.907ZM59.648 95.8482L57.3255 97.7471L62.648 104.257V95.8482H59.648ZM59.648 76.1544L56.7205 75.499L56.648 75.8227V76.1544H59.648ZM64.608 66.7998L62.4945 64.6706L62.4945 64.6706L64.608 66.7998ZM77.504 60.3993L80.5039 60.3795L80.4843 57.3993H77.504V60.3993ZM78 139.667L78 142.667L81 142.667V139.667H78ZM33.856 92.8941L36.2649 91.106L30.856 83.8195V92.8941H33.856ZM146 107.426H143V110.426H146V107.426ZM146 94.4262V91.4262H143V94.4262H146ZM181 107.426V110.426H181.616L182.182 110.184L181 107.426ZM181 94.4262L182.182 91.6688L181.616 91.4262H181V94.4262ZM128.989 125.936C121.432 135.384 109.816 141.426 96.7869 141.426V147.426C111.716 147.426 125.028 140.494 133.674 129.684L128.989 125.936ZM166.213 141.852C153.002 141.852 141.244 135.64 133.697 125.965L128.966 129.655C137.601 140.725 151.076 147.852 166.213 147.852V141.852ZM182.792 138.383C177.723 140.613 172.117 141.852 166.213 141.852V147.852C172.964 147.852 179.392 146.434 185.208 143.875L182.792 138.383ZM181 121.09V141.129H187V121.09H181ZM167.5 129.852C174.441 129.852 180.83 127.451 185.869 123.437L182.131 118.744C178.116 121.943 173.035 123.852 167.5 123.852V129.852ZM138 100.352C138 116.645 151.208 129.852 167.5 129.852V123.852C154.521 123.852 144 113.331 144 100.352H138ZM167.5 70.8524C151.208 70.8524 138 84.06 138 100.352H144C144 87.3738 154.521 76.8524 167.5 76.8524V70.8524ZM185.869 77.2683C180.83 73.2536 174.441 70.8524 167.5 70.8524V76.8524C173.035 76.8524 178.116 78.7622 182.131 81.9611L185.869 77.2683ZM181 60.1497V79.6147H187V60.1497H181ZM166.213 59.4262C172.117 59.4262 177.723 60.6657 182.792 62.8957L185.208 57.4037C179.392 54.8451 172.964 53.4262 166.213 53.4262V59.4262ZM134.011 74.9162C141.568 65.4688 153.184 59.4262 166.213 59.4262V53.4262C151.284 53.4262 137.972 60.3586 129.326 71.1682L134.011 74.9162ZM96.7869 59C109.998 59 121.756 65.2124 129.303 74.8874L134.034 71.197C125.399 60.1273 111.924 53 96.7869 53V59ZM80.2081 62.4695C85.2771 60.2395 90.8833 59 96.7869 59V53C90.0357 53 83.6079 54.4188 77.7919 56.9775L80.2081 62.4695ZM82 79.1885V59.7235H76V79.1885H82ZM95.5 70.4262C88.5586 70.4262 82.1698 72.8274 77.1306 76.8421L80.8694 81.5349C84.8845 78.336 89.9651 76.4262 95.5 76.4262V70.4262ZM125 99.9262C125 83.6338 111.792 70.4262 95.5 70.4262V76.4262C108.479 76.4262 119 86.9475 119 99.9262H125ZM95.5 129.426C111.792 129.426 125 116.219 125 99.9262H119C119 112.905 108.479 123.426 95.5 123.426V129.426ZM77.1306 123.01C82.1698 127.025 88.5586 129.426 95.5 129.426V123.426C89.9651 123.426 84.8845 121.516 80.8694 118.318L77.1306 123.01ZM82 140.703V120.664H76V140.703H82ZM96.7869 141.426C90.8833 141.426 85.2771 140.187 80.2081 137.957L77.7919 143.449C83.6079 146.007 90.0357 147.426 96.7869 147.426V141.426ZM13 64.8304V132.282H19V64.8304H13ZM20.7334 56.0106C16.5856 57.0399 13 60.6471 13 64.8304H19C19 64.0902 19.9776 62.3801 22.1786 61.8339L20.7334 56.0106ZM30.5516 57.4051C29.0012 56.3791 27.1036 55.924 25.4901 55.7541C23.85 55.5814 22.1271 55.6647 20.7334 56.0106L22.1786 61.8339C22.7689 61.6874 23.774 61.6066 24.8619 61.7211C25.9764 61.8385 26.8068 62.1218 27.2404 62.4088L30.5516 57.4051ZM61.9705 93.9493C57.3349 88.2796 50.231 79.6746 43.9838 72.2851C40.8619 68.5923 37.9422 65.189 35.647 62.6034C34.5012 61.3127 33.4948 60.2073 32.6884 59.3648C31.983 58.6278 31.1843 57.8239 30.5516 57.4051L27.2404 62.4088C27.2029 62.3839 27.5222 62.6446 28.3539 63.5136C29.0847 64.277 30.0343 65.3186 31.1598 66.5866C33.4072 69.1183 36.2906 72.4786 39.4018 76.1587C45.6208 83.5149 52.7025 92.0929 57.3255 97.7471L61.9705 93.9493ZM56.648 76.1544V95.8482H62.648V76.1544H56.648ZM62.4945 64.6706C59.593 67.5508 57.8329 70.5301 56.7205 75.499L62.5755 76.8098C63.4471 72.9164 64.663 70.9722 66.7215 68.9289L62.4945 64.6706ZM77.504 57.3993C76.1265 57.3993 74.646 57.7925 73.3339 58.2596C71.9685 58.7458 70.5419 59.4016 69.1982 60.1092C66.584 61.4859 63.9262 63.2496 62.4945 64.6706L66.7215 68.9289C67.5356 68.1208 69.5897 66.6842 71.994 65.418C73.1597 64.8041 74.319 64.2778 75.3462 63.9121C76.4267 63.5275 77.1454 63.3993 77.504 63.3993V57.3993ZM81 139.667C81 137.685 80.8759 117.851 80.7519 98.5368C80.6899 88.8744 80.6279 79.3351 80.5814 72.2114C80.5582 68.6495 80.5388 65.6916 80.5252 63.6241C80.5185 62.5903 80.5131 61.7792 80.5095 61.2265C80.5077 60.9502 80.5063 60.7384 80.5054 60.5958C80.5049 60.5244 80.5045 60.4704 80.5043 60.4342C80.5042 60.416 80.5041 60.4024 80.504 60.3933C80.504 60.3887 80.504 60.3853 80.504 60.383C80.5039 60.3818 80.5039 60.381 80.5039 60.3804C80.5039 60.3798 80.5039 60.3795 77.504 60.3993C74.5041 60.419 74.5041 60.4193 74.5041 60.4199C74.5041 60.4205 74.5041 60.4213 74.5041 60.4225C74.5041 60.4248 74.5041 60.4282 74.5042 60.4328C74.5042 60.4419 74.5043 60.4555 74.5044 60.4737C74.5047 60.5099 74.505 60.5639 74.5055 60.6352C74.5064 60.7779 74.5078 60.9896 74.5096 61.266C74.5133 61.8186 74.5186 62.6297 74.5254 63.6635C74.5389 65.7309 74.5583 68.6888 74.5816 72.2506C74.6281 79.3741 74.6901 88.9132 74.7521 98.5753C74.8761 117.91 75 137.71 75 139.667H81ZM33.856 92.8941C31.4471 94.6822 31.4474 94.6826 31.4478 94.6831C31.4481 94.6835 31.4486 94.6842 31.4492 94.685C31.4504 94.6866 31.4521 94.689 31.4544 94.692C31.4589 94.6981 31.4655 94.707 31.4742 94.7186C31.4915 94.7419 31.5171 94.7763 31.5508 94.8215C31.618 94.9117 31.7174 95.0448 31.8471 95.2179C32.1064 95.5641 32.487 96.0705 32.974 96.7141C33.948 98.0013 35.3485 99.8381 37.058 102.041C40.4751 106.446 45.1364 112.326 50.1003 118.214C55.0527 124.089 60.3567 130.03 65.0521 134.526C67.3941 136.768 69.6538 138.717 71.6923 140.125C72.7125 140.83 73.7362 141.441 74.7344 141.884C75.7065 142.315 76.8296 142.667 78 142.667L78 136.667C78.0107 136.667 77.948 136.668 77.7956 136.628C77.6448 136.589 77.4371 136.519 77.1681 136.4C76.6223 136.157 75.9337 135.763 75.1027 135.189C73.4386 134.039 71.4396 132.335 69.2014 130.192C64.7363 125.917 59.5933 120.166 54.6877 114.347C49.7936 108.542 45.1859 102.729 41.7985 98.3633C40.1058 96.1817 38.7201 94.3644 37.7586 93.0936C37.2778 92.4583 36.9032 91.9598 36.6493 91.6209C36.5224 91.4514 36.4257 91.3219 36.361 91.2351C36.3287 91.1917 36.3043 91.1591 36.2882 91.1374C36.2802 91.1266 36.2742 91.1185 36.2703 91.1133C36.2683 91.1107 36.2669 91.1087 36.266 91.1075C36.2655 91.1069 36.2653 91.1065 36.265 91.1062C36.2649 91.106 36.2649 91.106 33.856 92.8941ZM36.856 132.282V92.8941H30.856V132.282H36.856ZM25.424 140.698C28.5665 140.698 31.3244 139.993 33.3907 138.566C35.5129 137.101 36.856 134.876 36.856 132.282H30.856C30.856 132.641 30.7111 133.125 29.9813 133.629C29.1956 134.171 27.7375 134.698 25.424 134.698V140.698ZM13 132.282C13 135.228 14.9685 137.403 17.145 138.683C19.3729 139.994 22.2804 140.698 25.424 140.698V134.698C23.1116 134.698 21.3071 134.17 20.187 133.512C19.0155 132.822 19 132.29 19 132.282H13ZM149 107.426V94.4262H143V107.426H149ZM181 104.426H146V110.426H181V104.426ZM181.5 100.926C181.5 102.651 180.922 103.585 180.492 104.076C180.258 104.344 180.031 104.519 179.883 104.618C179.81 104.666 179.76 104.694 179.744 104.702C179.737 104.706 179.738 104.705 179.75 104.7C179.755 104.697 179.764 104.693 179.775 104.688C179.781 104.685 179.787 104.682 179.795 104.679C179.798 104.678 179.802 104.676 179.806 104.674C179.808 104.673 179.81 104.672 179.812 104.672C179.813 104.671 179.815 104.67 179.815 104.67C179.817 104.669 179.818 104.669 181 107.426C182.182 110.184 182.183 110.183 182.185 110.182C182.186 110.182 182.187 110.181 182.188 110.181C182.191 110.18 182.193 110.179 182.195 110.178C182.2 110.176 182.205 110.173 182.211 110.171C182.221 110.167 182.232 110.161 182.245 110.156C182.269 110.145 182.298 110.132 182.329 110.117C182.392 110.087 182.469 110.049 182.557 110.002C182.732 109.909 182.956 109.78 183.211 109.61C183.719 109.271 184.367 108.759 185.008 108.027C186.328 106.517 187.5 104.201 187.5 100.926H181.5ZM181 94.4262C179.818 97.1837 179.817 97.183 179.815 97.1823C179.815 97.1821 179.813 97.1814 179.812 97.1809C179.81 97.18 179.808 97.1792 179.806 97.1783C179.802 97.1766 179.798 97.1749 179.795 97.1734C179.787 97.1702 179.781 97.1674 179.775 97.1648C179.764 97.1597 179.755 97.1557 179.75 97.1529C179.738 97.1473 179.737 97.1464 179.744 97.1505C179.76 97.1589 179.81 97.1862 179.883 97.2349C180.031 97.3335 180.258 97.5087 180.492 97.7767C180.922 98.2673 181.5 99.2012 181.5 100.926H187.5C187.5 97.6513 186.328 95.3351 185.008 93.8257C184.367 93.0938 183.719 92.5814 183.211 92.2426C182.956 92.0725 182.732 91.9436 182.557 91.8504C182.469 91.8037 182.392 91.7657 182.329 91.7357C182.298 91.7207 182.269 91.7077 182.245 91.6966C182.232 91.691 182.221 91.6859 182.211 91.6813C182.205 91.679 182.2 91.6768 182.195 91.6747C182.193 91.6737 182.191 91.6726 182.188 91.6717C182.187 91.6712 182.186 91.6704 182.185 91.6702C182.183 91.6695 182.182 91.6688 181 94.4262ZM146 97.4262H181V91.4262H146V97.4262Z" fill="#282828" fill-opacity="0.7" mask="url(#path-2-inside-1_3_39)"/>
<defs>
<linearGradient id="paint0_linear_3_39" x1="16" y1="100" x2="184" y2="100" gradientUnits="userSpaceOnUse">
<stop stop-color="#C5293D"/>
<stop offset="1" stop-color="#FEB41C"/>
</linearGradient>
</defs>
</svg>
